{
  "accessors": [
    {
      "bufferView": 2,
      "componentType": 5126,
      "count": 65532,
      "max": [
        69.81958770751953,
        29.69812774658203,
        88.82618713378906
      ],
      "min": [
        -68.59400939941406,
        -32.78495788574219,
        -77.0595932006836
      ],
      "type": "VEC3"
    },
    {
      "bufferView": 2,
      "byteOffset": 786384,
      "componentType": 5126,
      "count": 65532,
      "max": [
        0.9999256134033203,
        0.999984622001648,
        0.9996399879455566
      ],
      "min": [
        -0.9998933672904968,
        -0.9999983310699463,
        -0.9984485507011414
      ],
      "type": "VEC3"
    },
    {
      "bufferView": 3,
      "componentType": 5126,
      "count": 65532,
      "max": [
        1.0,
        1.0,
        0.9999992847442627,
        1.0
      ],
      "min": [
        -0.9999244213104248,
        -0.999950647354126,
        -0.9999994039535522,
        1.0
      ],
      "type": "VEC4"
    },
    {
      "bufferView": 1,
      "componentType": 5126,
      "count": 65532,
      "max": [
        0.989031970500946,
        0.9945849776268005
      ],
      "min": [
        0.011710000224411488,
        0.0024240000639110804
      ],
      "type": "VEC2"
    },
    {
      "bufferView": 0,
      "componentType": 5125,
      "count": 336621,
      "type": "SCALAR"
    },
    {
      "bufferView": 2,
      "byteOffset": 1572768,
      "componentType": 5126,
      "count": 65532,
      "max": [
        31.676136016845703,
        32.74351501464844,
        67.70779418945313
      ],
      "min": [
        -72.16449737548828,
        -32.355281829833984,
        -89.0702133178711
      ],
      "type": "VEC3"
    },
    {
      "bufferView": 2,
      "byteOffset": 2359152,
      "componentType": 5126,
      "count": 65532,
      "max": [
        0.9999665021896362,
        0.9999986290931702,
        0.9999205470085144
      ],
      "min": [
        -0.9999448657035828,
        -0.9999977350234985,
        -0.9999750256538391
      ],
      "type": "VEC3"
    },
    {
      "bufferView": 3,
      "byteOffset": 1048512,
      "componentType": 5126,
      "count": 65532,
      "max": [
        1.0,
        1.0,
        0.9999985098838806,
        1.0
      ],
      "min": [
        -0.9999499917030334,
        -1.0,
        -0.9999961853027344,
        -1.0
      ],
      "type": "VEC4"
    },
    {
      "bufferView": 1,
      "byteOffset": 524256,
      "componentType": 5126,
      "count": 65532,
      "max": [
        0.9914870262145996,
        0.9980080127716064
      ],
      "min": [
        0.001978999935090542,
        0.0025470000691711903
      ],
      "type": "VEC2"
    },
    {
      "bufferView": 0,
      "byteOffset": 1346484,
      "componentType": 5125,
      "count": 338679,
      "type": "SCALAR"
    },
    {
      "bufferView": 2,
      "byteOffset": 3145536,
      "componentType": 5126,
      "count": 24812,
      "max": [
        72.30719757080078,
        23.720733642578125,
        89.07694244384766
      ],
      "min": [
        -68.59400939941406,
        -32.78495788574219,
        -9.798063278198242
      ],
      "type": "VEC3"
    },
    {
      "bufferView": 2,
      "byteOffset": 3443280,
      "componentType": 5126,
      "count": 24812,
      "max": [
        0.9996956586837769,
        0.9999899864196777,
        0.9997731447219849
      ],
      "min": [
        -0.9999503493309021,
        -0.9999986290931702,
        -0.9995866417884827
      ],
      "type": "VEC3"
    },
    {
      "bufferView": 3,
      "byteOffset": 2097024,
      "componentType": 5126,
      "count": 24812,
      "max": [
        0.9999971985816956,
        0.9999963045120239,
        0.9999983906745911,
        1.0
      ],
      "min": [
        -0.9999902844429016,
        -0.9999734163284302,
        -0.9999994039535522,
        -1.0
      ],
      "type": "VEC4"
    },
    {
      "bufferView": 1,
      "byteOffset": 1048512,
      "componentType": 5126,
      "count": 24812,
      "max": [
        0.9915549755096436,
        0.9925429821014404
      ],
      "min": [
        0.001978999935090542,
        0.0019920000340789557
      ],
      "type": "VEC2"
    },
    {
      "bufferView": 0,
      "byteOffset": 2701200,
      "componentType": 5125,
      "count": 113850,
      "type": "SCALAR"
    },
    {
      "bufferView": 2,
      "byteOffset": 3741024,
      "componentType": 5126,
      "count": 65532,
      "max": [
        72.45681762695313,
        33.5174446105957,
        89.50719451904297
      ],
      "min": [
        -69.36713409423828,
        -33.553382873535156,
        -86.38955688476563
      ],
      "type": "VEC3"
    },
    {
      "bufferView": 2,
      "byteOffset": 4527408,
      "componentType": 5126,
      "count": 65532,
      "max": [
        0.9999605417251587,
        0.9999987483024597,
        0.9986943602561951
      ],
      "min": [
        -0.9999526143074036,
        -0.9999986290931702,
        -0.9996805191040039
      ],
      "type": "VEC3"
    },
    {
      "bufferView": 3,
      "byteOffset": 2494016,
      "componentType": 5126,
      "count": 65532,
      "max": [
        0.9999868273735046,
        0.9999769330024719,
        0.9832426309585571,
        1.0
      ],
      "min": [
        -0.997951328754425,
        -0.9990904927253723,
        -0.9984793663024902,
        -1.0
      ],
      "type": "VEC4"
    },
    {
      "bufferView": 1,
      "byteOffset": 1247008,
      "componentType": 5126,
      "count": 65532,
      "max": [
        0.9964680075645447,
        0.9055039882659912
      ],
      "min": [
        0.059957001358270645,
        0.003766000038012862
      ],
      "type": "VEC2"
    },
    {
      "bufferView": 0,
      "byteOffset": 3156600,
      "componentType": 5125,
      "count": 342441,
      "type": "SCALAR"
    },
    {
      "bufferView": 2,
      "byteOffset": 5313792,
      "componentType": 5126,
      "count": 65532,
      "max": [
        32.095035552978516,
        33.48723602294922,
        26.093976974487305
      ],
      "min": [
        -72.93646240234375,
        -33.1266975402832,
        -89.8441162109375
      ],
      "type": "VEC3"
    },
    {
      "bufferView": 2,
      "byteOffset": 6100176,
      "componentType": 5126,
      "count": 65532,
      "max": [
        0.9999605417251587,
        0.999967098236084,
        0.9999879002571106
      ],
      "min": [
        -0.9999667406082153,
        -0.999928891658783,
        -0.9997382164001465
      ],
      "type": "VEC3"
    },
    {
      "bufferView": 3,
      "byteOffset": 3542528,
      "componentType": 5126,
      "count": 65532,
      "max": [
        0.9999894499778748,
        0.9999571442604065,
        0.9979351758956909,
        1.0
      ],
      "min": [
        -0.997951328754425,
        -0.9999281167984009,
        -0.9997995495796204,
        -1.0
      ],
      "type": "VEC4"
    },
    {
      "bufferView": 1,
      "byteOffset": 1771264,
      "componentType": 5126,
      "count": 65532,
      "max": [
        0.9977279901504517,
        0.9122030138969421
      ],
      "min": [
        0.0019920000340789557,
        0.0018210000125691295
      ],
      "type": "VEC2"
    },
    {
      "bufferView": 0,
      "byteOffset": 4526364,
      "componentType": 5125,
      "count": 343278,
      "type": "SCALAR"
    },
    {
      "bufferView": 2,
      "byteOffset": 6886560,
      "componentType": 5126,
      "count": 22879,
      "max": [
        73.06236267089844,
        24.311201095581055,
        89.84977722167969
      ],
      "min": [
        -69.36713409423828,
        -33.553382873535156,
        -17.807661056518555
      ],
      "type": "VEC3"
    },
    {
      "bufferView": 2,
      "byteOffset": 7161108,
      "componentType": 5126,
      "count": 22879,
      "max": [
        0.9999510049819946,
        0.9995760917663574,
        0.9996023774147034
      ],
      "min": [
        -0.9996767640113831,
        -0.999978244304657,
        -0.999725878238678
      ],
      "type": "VEC3"
    },
    {
      "bufferView": 3,
      "byteOffset": 4591040,
      "componentType": 5126,
      "count": 22879,
      "max": [
        0.9997633695602417,
        0.9999988675117493,
        0.9999681711196899,
        1.0
      ],
      "min": [
        -0.9999845027923584,
        -0.9997261166572571,
        -0.9992451667785645,
        -1.0
      ],
      "type": "VEC4"
    },
    {
      "bufferView": 1,
      "byteOffset": 2295520,
      "componentType": 5126,
      "count": 22879,
      "max": [
        0.9980080127716064,
        0.9124339818954468
      ],
      "min": [
        0.0019920000340789557,
        0.0030960000585764647
      ],
      "type": "VEC2"
    },
    {
      "bufferView": 0,
      "byteOffset": 5899476,
      "componentType": 5125,
      "count": 103461,
      "type": "SCALAR"
    }
  ],
  "asset": {
    "extras": {
      "author": "Sammi_stapley (https://sketchfab.com/Sammi_stapley)",
      "license": "CC-BY-4.0 (http://creativecommons.org/licenses/by/4.0/)",
      "source": "https://sketchfab.com/3d-models/gregormy-the-octopus-16e10a6f3e804231bfb3f1f3ec250171",
      "title": "Gregormy the Octopus"
    },
    "generator": "Sketchfab-12.66.0",
    "version": "2.0"
  },
  "bufferViews": [
    {
      "buffer": 0,
      "byteLength": 6313320,
      "name": "floatBufferViews",
      "target": 34963
    },
    {
      "buffer": 0,
      "byteLength": 2478552,
      "byteOffset": 6313320,
      "byteStride": 8,
      "name": "floatBufferViews",
      "target": 34962
    },
    {
      "buffer": 0,
      "byteLength": 7435656,
      "byteOffset": 8791872,
      "byteStride": 12,
      "name": "floatBufferViews",
      "target": 34962
    },
    {
      "buffer": 0,
      "byteLength": 4957104,
      "byteOffset": 16227528,
      "byteStride": 16,
      "name": "floatBufferViews",
      "target": 34962
    }
  ],
  "buffers": [
    {
      "byteLength": 21184632,
      "uri": "scene.bin"
    }
  ],
  "images": [
    {
      "uri": "textures/lambert3_baseColor.jpeg"
    },
    {
      "uri": "textures/lambert3_metallicRoughness.png"
    },
    {
      "uri": "textures/lambert3_normal.png"
    },
    {
      "uri": "textures/lambert4_baseColor.jpeg"
    },
    {
      "uri": "textures/lambert4_metallicRoughness.png"
    },
    {
      "uri": "textures/lambert4_normal.png"
    }
  ],
  "materials": [
    {
      "name": "lambert3",
      "normalTexture": {
        "index": 2
      },
      "pbrMetallicRoughness": {
        "baseColorTexture": {
          "index": 0
        },
        "metallicRoughnessTexture": {
          "index": 1
        }
      }
    },
    {
      "name": "lambert4",
      "normalTexture": {
        "index": 5
      },
      "pbrMetallicRoughness": {
        "baseColorTexture": {
          "index": 3
        },
        "metallicRoughnessTexture": {
          "index": 4
        }
      }
    }
  ],
  "meshes": [
    {
      "name": "defaultMaterial",
      "primitives": [
        {
          "attributes": {
            "NORMAL": 1,
            "POSITION": 0,
            "TANGENT": 2,
            "TEXCOORD_0": 3
          },
          "indices": 4,
          "material": 0,
          "mode": 4
        }
      ]
    },
    {
      "name": "defaultMaterial",
      "primitives": [
        {
          "attributes": {
            "NORMAL": 6,
            "POSITION": 5,
            "TANGENT": 7,
            "TEXCOORD_0": 8
          },
          "indices": 9,
          "material": 0,
          "mode": 4
        }
      ]
    },
    {
      "name": "defaultMaterial",
      "primitives": [
        {
          "attributes": {
            "NORMAL": 11,
            "POSITION": 10,
            "TANGENT": 12,
            "TEXCOORD_0": 13
          },
          "indices": 14,
          "material": 0,
          "mode": 4
        }
      ]
    },
    {
      "name": "defaultMaterial",
      "primitives": [
        {
          "attributes": {
            "NORMAL": 16,
            "POSITION": 15,
            "TANGENT": 17,
            "TEXCOORD_0": 18
          },
          "indices": 19,
          "material": 1,
          "mode": 4
        }
      ]
    },
    {
      "name": "defaultMaterial",
      "primitives": [
        {
          "attributes": {
            "NORMAL": 21,
            "POSITION": 20,
            "TANGENT": 22,
            "TEXCOORD_0": 23
          },
          "indices": 24,
          "material": 1,
          "mode": 4
        }
      ]
    },
    {
      "name": "defaultMaterial",
      "primitives": [
        {
          "attributes": {
            "NORMAL": 26,
            "POSITION": 25,
            "TANGENT": 27,
            "TEXCOORD_0": 28
          },
          "indices": 29,
          "material": 1,
          "mode": 4
        }
      ]
    }
  ],
  "nodes": [
    {
      "children": [
        1
      ],
      "matrix": [
        1.0,
        0.0,
        0.0,
        0.0,
        0.0,
        2.220446049250313e-16,
        -1.0,
        0.0,
        0.0,
        1.0,
        2.220446049250313e-16,
        0.0,
        0.0,
        0.0,
        0.0,
        1.0
      ],
      "name": "Sketchfab_model"
    },
    {
      "children": [
        2
      ],
      "matrix": [
        1.0,
        0.0,
        0.0,
        0.0,
        0.0,
        -4.371139006309477e-08,
        0.999999999999999,
        0.0,
        0.0,
        -0.999999999999999,
        -4.371139006309477e-08,
        0.0,
        0.0,
        0.0,
        0.0,
        1.0
      ],
      "name": "Collada visual scene group"
    },
    {
      "children": [
        3
      ],
      "matrix": [
        1.0,
        0.0,
        0.0,
        0.0,
        0.0,
        1.0,
        0.0,
        0.0,
        0.0,
        0.0,
        1.0,
        0.0,
        -0.082405,
        0.021572,
        -0.003517,
        1.0
      ],
      "name": "polySurface5831"
    },
    {
      "children": [
        4,
        8
      ],
      "name": "polySurface5835"
    },
    {
      "children": [
        5,
        6,
        7
      ],
      "name": "polySurface5836"
    },
    {
      "mesh": 0,
      "name": "defaultMaterial"
    },
    {
      "mesh": 1,
      "name": "defaultMaterial"
    },
    {
      "mesh": 2,
      "name": "defaultMaterial"
    },
    {
      "children": [
        9,
        10,
        11
      ],
      "name": "polySurface5837"
    },
    {
      "mesh": 3,
      "name": "defaultMaterial"
    },
    {
      "mesh": 4,
      "name": "defaultMaterial"
    },
    {
      "mesh": 5,
      "name": "defaultMaterial"
    }
  ],
  "samplers": [
    {
      "magFilter": 9729,
      "minFilter": 9987,
      "wrapS": 10497,
      "wrapT": 10497
    }
  ],
  "scene": 0,
  "scenes": [
    {
      "name": "Sketchfab_Scene",
      "nodes": [
        0
      ]
    }
  ],
  "textures": [
    {
      "sampler": 0,
      "source": 0
    },
    {
      "sampler": 0,
      "source": 1
    },
    {
      "sampler": 0,
      "source": 2
    },
    {
      "sampler": 0,
      "source": 3
    },
    {
      "sampler": 0,
      "source": 4
    },
    {
      "sampler": 0,
      "source": 5
    }
  ]
}
