{
  "accessors": [
    {
      "bufferView": 1,
      "componentType": 5126,
      "count": 8180,
      "max": [
        0.997422993183136,
        0.6845139861106873,
        0.40123701095581055
      ],
      "min": [
        -0.997422993183136,
        -1.3684589862823486,
        -2.578953981399536
      ],
      "type": "VEC3"
    },
    {
      "bufferView": 1,
      "byteOffset": 98160,
      "componentType": 5126,
      "count": 8180,
      "max": [
        0.9999312162399292,
        0.9995939135551453,
        0.9999590516090393
      ],
      "min": [
        -0.999638557434082,
        -0.9998903870582581,
        -0.9999904036521912
      ],
      "type": "VEC3"
    },
    {
      "bufferView": 2,
      "componentType": 5126,
      "count": 8180,
      "max": [
        0.7529410123825073,
        0.7529410123825073,
        0.7529410123825073,
        1.0
      ],
      "min": [
        0.7529410123825073,
        0.7529410123825073,
        0.7529410123825073,
        1.0
      ],
      "type": "VEC4"
    },
    {
      "bufferView": 0,
      "componentType": 5125,
      "count": 49044,
      "type": "SCALAR"
    }
  ],
  "asset": {
    "extras": {
      "author": "Key3D (https://sketchfab.com/TheRealKey3D)",
      "license": "CC-BY-4.0 (http://creativecommons.org/licenses/by/4.0/)",
      "source": "https://sketchfab.com/3d-models/mad-octopus-80fd3c4d6bed496190a44f82918b0a11",
      "title": "Mad Octopus"
    },
    "generator": "Sketchfab-12.68.0",
    "version": "2.0"
  },
  "bufferViews": [
    {
      "buffer": 0,
      "byteLength": 196176,
      "name": "floatBufferViews",
      "target": 34963
    },
    {
      "buffer": 0,
      "byteLength": 196320,
      "byteOffset": 196176,
      "byteStride": 12,
      "name": "floatBufferViews",
      "target": 34962
    },
    {
      "buffer": 0,
      "byteLength": 130880,
      "byteOffset": 392496,
      "byteStride": 16,
      "name": "floatBufferViews",
      "target": 34962
    }
  ],
  "buffers": [
    {
      "byteLength": 523376,
      "uri": "scene.bin"
    }
  ],
  "materials": [
    {
      "doubleSided": true,
      "name": "material_0",
      "pbrMetallicRoughness": {
        "metallicFactor": 0.0,
        "roughnessFactor": 0.2
      }
    }
  ],
  "meshes": [
    {
      "name": "Object_0",
      "primitives": [
        {
          "attributes": {
            "COLOR_0": 2,
            "NORMAL": 1,
            "POSITION": 0
          },
          "indices": 3,
          "material": 0,
          "mode": 4
        }
      ]
    }
  ],
  "nodes": [
    {
      "children": [
        1
      ],
      "matrix": [
        1.0,
        0.0,
        0.0,
        0.0,
        0.0,
        2.220446049250313e-16,
        -1.0,
        0.0,
        0.0,
        1.0,
        2.220446049250313e-16,
        0.0,
        0.0,
        0.0,
        0.0,
        1.0
      ],
      "name": "Sketchfab_model"
    },
    {
      "children": [
        2
      ],
      "name": "mad octopus.obj.cleaner"
    },
    {
      "mesh": 0,
      "name": "Object_2"
    }
  ],
  "scene": 0,
  "scenes": [
    {
      "name": "Sketchfab_Scene",
      "nodes": [
        0
      ]
    }
  ]
}
