{
  "accessors": [
    {
      "bufferView": 2,
      "componentType": 5126,
      "count": 1248,
      "max": [
        1.4944759607315063,
        0.19524306058883667,
        4.301012992858887
      ],
      "min": [
        -6.168190002441406,
        -4.419516086578369,
        -3.0457088947296143
      ],
      "type": "VEC3"
    },
    {
      "bufferView": 2,
      "byteOffset": 14976,
      "componentType": 5126,
      "count": 1248,
      "max": [
        0.9952191114425659,
        0.9998245239257813,
        0.9998639822006226
      ],
      "min": [
        -0.9990010261535645,
        -0.9995329976081848,
        -0.9972813725471497
      ],
      "type": "VEC3"
    },
    {
      "bufferView": 1,
      "componentType": 5126,
      "count": 1248,
      "max": [
        0.9477454423904419,
        0.9886512160301208
      ],
      "min": [
        0.8890960216522217,
        0.5399340391159058
      ],
      "type": "VEC2"
    },
    {
      "bufferView": 1,
      "byteOffset": 9984,
      "componentType": 5126,
      "count": 1248,
      "max": [
        0.9477454423904419,
        0.9886512160301208
      ],
      "min": [
        0.8890960216522217,
        0.5399340391159058
      ],
      "type": "VEC2"
    },
    {
      "bufferView": 0,
      "componentType": 5125,
      "count": 2772,
      "type": "SCALAR"
    },
    {
      "bufferView": 2,
      "byteOffset": 29952,
      "componentType": 5126,
      "count": 34144,
      "max": [
        125.37625122070313,
        146.94735717773438,
        61.4724006652832
      ],
      "min": [
        -125.37625122070313,
        -79.5466079711914,
        -146.51885986328125
      ],
      "type": "VEC3"
    },
    {
      "bufferView": 2,
      "byteOffset": 439680,
      "componentType": 5126,
      "count": 34144,
      "max": [
        0.9999990463256836,
        1.0,
        0.9999721646308899
      ],
      "min": [
        -0.9999990463256836,
        -1.0,
        -0.9999958276748657
      ],
      "type": "VEC3"
    },
    {
      "bufferView": 1,
      "byteOffset": 19968,
      "componentType": 5126,
      "count": 34144,
      "max": [
        1.9814562797546387,
        0.9771461486816406
      ],
      "min": [
        0.02240978181362152,
        0.011301551014184952
      ],
      "type": "VEC2"
    },
    {
      "bufferView": 1,
      "byteOffset": 293120,
      "componentType": 5126,
      "count": 34144,
      "max": [
        1.9814562797546387,
        0.9771461486816406
      ],
      "min": [
        0.02240978181362152,
        0.011301551014184952
      ],
      "type": "VEC2"
    },
    {
      "bufferView": 1,
      "byteOffset": 566272,
      "componentType": 5126,
      "count": 34144,
      "max": [
        1.9814562797546387,
        0.9771461486816406
      ],
      "min": [
        0.02240978181362152,
        0.011301551014184952
      ],
      "type": "VEC2"
    },
    {
      "bufferView": 0,
      "byteOffset": 11088,
      "componentType": 5125,
      "count": 187392,
      "type": "SCALAR"
    }
  ],
  "asset": {
    "extras": {
      "author": "Ergoni (https://sketchfab.com/Ergoni)",
      "license": "CC-BY-4.0 (http://creativecommons.org/licenses/by/4.0/)",
      "source": "https://sketchfab.com/3d-models/phantump-shiny-c38328f65ad849d2aa2387eeb3b4e4a9",
      "title": "Phantump Shiny"
    },
    "generator": "Sketchfab-12.66.0",
    "version": "2.0"
  },
  "bufferViews": [
    {
      "buffer": 0,
      "byteLength": 760656,
      "name": "floatBufferViews",
      "target": 34963
    },
    {
      "buffer": 0,
      "byteLength": 839424,
      "byteOffset": 760656,
      "byteStride": 8,
      "name": "floatBufferViews",
      "target": 34962
    },
    {
      "buffer": 0,
      "byteLength": 849408,
      "byteOffset": 1600080,
      "byteStride": 12,
      "name": "floatBufferViews",
      "target": 34962
    }
  ],
  "buffers": [
    {
      "byteLength": 2449488,
      "uri": "scene.bin"
    }
  ],
  "extensionsUsed": [
    "KHR_materials_unlit"
  ],
  "images": [
    {
      "uri": "textures/Gradient-emi_baseColor.png"
    },
    {
      "uri": "textures/Phantump_baseColor.png"
    },
    {
      "uri": "textures/Phantump_emissive.png"
    }
  ],
  "materials": [
    {
      "doubleSided": true,
      "emissiveFactor": [
        1.0,
        1.0,
        1.0
      ],
      "emissiveTexture": {
        "index": 0
      },
      "extensions": {
        "KHR_materials_unlit": {}
      },
      "name": "Gradient-emi",
      "pbrMetallicRoughness": {
        "baseColorTexture": {
          "index": 0
        },
        "metallicFactor": 0.0
      }
    },
    {
      "doubleSided": true,
      "emissiveFactor": [
        1.0,
        1.0,
        1.0
      ],
      "emissiveTexture": {
        "index": 2
      },
      "extensions": {
        "KHR_materials_unlit": {}
      },
      "name": "Phantump",
      "pbrMetallicRoughness": {
        "baseColorTexture": {
          "index": 1
        },
        "metallicFactor": 0.0
      }
    }
  ],
  "meshes": [
    {
      "name": "Flame_Gradient-emi_0",
      "primitives": [
        {
          "attributes": {
            "NORMAL": 1,
            "POSITION": 0,
            "TEXCOORD_0": 2,
            "TEXCOORD_1": 3
          },
          "indices": 4,
          "material": 0,
          "mode": 4
        }
      ]
    },
    {
      "name": "Phantump_low_Phantump_0",
      "primitives": [
        {
          "attributes": {
            "NORMAL": 6,
            "POSITION": 5,
            "TEXCOORD_0": 7,
            "TEXCOORD_1": 8,
            "TEXCOORD_2": 9
          },
          "indices": 10,
          "material": 1,
          "mode": 4
        }
      ]
    }
  ],
  "nodes": [
    {
      "children": [
        1
      ],
      "matrix": [
        1.0,
        0.0,
        0.0,
        0.0,
        0.0,
        2.220446049250313e-16,
        -1.0,
        0.0,
        0.0,
        1.0,
        2.220446049250313e-16,
        0.0,
        0.0,
        0.0,
        0.0,
        1.0
      ],
      "name": "Sketchfab_model"
    },
    {
      "children": [
        2
      ],
      "matrix": [
        1.0,
        0.0,
        0.0,
        0.0,
        0.0,
        0.0,
        1.0,
        0.0,
        0.0,
        -1.0,
        0.0,
        0.0,
        0.0,
        0.0,
        0.0,
        1.0
      ],
      "name": "049611568dd54885840185b1398756a1.fbx"
    },
    {
      "children": [
        3,
        5
      ],
      "name": "RootNode"
    },
    {
      "children": [
        4
      ],
      "matrix": [
        29.253836611423445,
        0.4505579158400075,
        -3.8934517048220023,
        0.0,
        -3.8939051028739247,
        -4.758507460334246e-06,
        -29.257243813443612,
        0.0,
        -0.4466202835314531,
        29.511791035113124,
        0.05943678700907761,
        0.0,
        569.0418701171875,
        26.137601852416992,
        -86.0769271850586,
        1.0
      ],
      "name": "Flame"
    },
    {
      "mesh": 0,
      "name": "Flame_Gradient-emi_0"
    },
    {
      "children": [
        6
      ],
      "matrix": [
        1.0015385150909424,
        0.0,
        0.0,
        0.0,
        0.0,
        1.001538515090929,
        1.6317134087535724e-07,
        0.0,
        0.0,
        -1.6317134087535724e-07,
        1.001538515090929,
        0.0,
        520.9854125976563,
        0.0,
        0.0,
        1.0
      ],
      "name": "Phantump_low"
    },
    {
      "mesh": 1,
      "name": "Phantump_low_Phantump_0"
    }
  ],
  "samplers": [
    {
      "magFilter": 9729,
      "minFilter": 9987,
      "wrapS": 10497,
      "wrapT": 10497
    }
  ],
  "scene": 0,
  "scenes": [
    {
      "name": "Sketchfab_Scene",
      "nodes": [
        0
      ]
    }
  ],
  "textures": [
    {
      "sampler": 0,
      "source": 0
    },
    {
      "sampler": 0,
      "source": 1
    },
    {
      "sampler": 0,
      "source": 2
    }
  ]
}
